<?xml version="1.0" encoding="UTF-8" standalone="no"?>
<svg version="1.1" viewBox="0 0 24 24" xmlns="http://www.w3.org/2000/svg" xmlns:xlink="http://www.w3.org/1999/xlink">
    <!--Generated by IJSVG (https://github.com/curthard89/IJSVG)-->
    <path fill="none" d="M0,0h24v24h-24Z"></path>
    <g fill="#FFFFFF">
        <path d="M9,18c-4.962,0 -9,-4.037 -9,-9c0,-4.963 4.038,-9 9,-9v2c-3.86,0 -7,3.14 -7,7c0,3.86 3.14,7 7,7c3.86,0 7,-3.14 7,-7h2c0,4.963 -4.038,9 -9,9Z" transform="translate(2.042, 4)"></path>
        <path d="M4.976,13.652l-4.976,-4.976l1.767,-1.768l3.024,3.024l8.125,-9.932l1.935,1.584Z" transform="translate(7.158, 3.208)"></path>
    </g>
</svg>